<?xml version="1.0" standalone="no"?>
<!DOCTYPE svg PUBLIC "-//W3C//DTD SVG 1.1//EN" "http://www.w3.org/Graphics/SVG/1.1/DTD/svg11.dtd">
<svg xmlns="http://www.w3.org/2000/svg">
<metadata>Copyright (C) 2015 by original authors @ fontello.com</metadata>
<defs>
<font id="aviapark" horiz-adv-x="1000" >
<font-face font-family="aviapark" font-weight="400" font-stretch="normal" units-per-em="1000" ascent="850" descent="-150" />
<missing-glyph horiz-adv-x="1000" />
<glyph glyph-name="vk" unicode="&#xe000;" d="m782 328c-29 30-59 51-121 61v4c46 14 66 36 84 65 19 29 32 63 32 100 0 33-5 62-19 86-13 25-33 45-61 60-25 14-52 22-81 27s-72 9-129 9h-277v-780h314c53 0 97 8 132 18 35 9 67 27 96 50 24 19 44 44 58 73s18 63 18 101c0 53-17 95-46 126l0 0z m-386 269h25c35 0 61-1 78-1 17-1 33-4 45-9 14-6 24-16 30-29 6-13 10-26 10-38 0-17-3-32-9-45-6-13-17-23-32-30-14-7-28-6-41-7-14 0-39 2-72 2l-33 2-1 155 0 0z m224-441c-8-15-21-26-38-33-20-9-40-10-59-10-20-1-55 2-105 2h-21v187h46c35 0 62-1 83-1 20-1 37-4 48-8 20-7 34-17 44-31s14-32 14-56c0-19-4-35-12-50l0 0z" horiz-adv-x="1000" />
<glyph glyph-name="fb" unicode="&#xe001;" d="m535 843v-147h-87q-48 0-65-20t-17-60v-106h164l-22-165h-142v-424h-171v424h-142v165h142v122q0 104 58 161t155 57q82 0 127-7z" horiz-adv-x="571.4" />
<glyph glyph-name="insta" unicode="&#xe002;" d="m760 54v362h-75q11-35 11-73 0-71-36-130t-97-94-134-35q-110 0-188 76t-78 183q0 38 11 73h-79v-362q0-14 10-24t25-10h596q14 0 24 10t10 24z m-158 298q0 69-51 118t-122 49q-71 0-121-49t-51-118 51-118 121-49q72 0 122 49t51 118z m158 201v92q0 15-11 27t-27 11h-98q-16 0-27-11t-11-27v-92q0-17 11-28t27-11h98q16 0 27 11t11 28z m97 116v-638q0-45-32-77t-78-33h-637q-45 0-78 33t-32 77v638q0 45 32 77t78 33h637q45 0 78-33t32-77z" horiz-adv-x="857.1" />
<glyph glyph-name="youtube" unicode="&#xe003;" d="m542 156v-118q0-37-22-37-13 0-25 12v168q12 12 25 12 22 0 22-37z m188-1v-25h-50v25q0 38 25 38t25-38z m-539 122h60v52h-174v-52h59v-318h55v318z m161-318h50v276h-50v-211q-17-23-32-23-10 0-11 11-1 2-1 20v203h-50v-218q0-28 5-41 7-21 32-21 27 0 57 34v-30z m240 83v110q0 41-5 55-10 31-40 31-28 0-52-30v121h-50v-370h50v27q25-31 52-31 30 0 40 31 5 15 5 56z m188 6v7h-51q0-29-1-34-4-20-22-20-26 0-26 38v49h100v57q0 44-15 65-22 28-59 28-38 0-60-28-15-21-15-65v-96q0-44 16-65 22-29 60-29 40 0 60 30 10 15 12 30 1 5 1 33z m-339 509v117q0 39-24 39t-24-39v-117q0-39 24-39t24 39z m401-419q0-131-14-195-8-33-33-56t-57-25q-102-12-309-12t-310 12q-32 3-57 25t-32 56q-15 62-15 195 0 131 15 195 7 33 32 56t57 26q103 11 310 11t309-11q33-4 57-26t33-56q14-62 14-195z m-557 712h57l-67-223v-151h-56v151q-8 42-34 119-21 57-37 104h60l39-147z m207-186v-97q0-46-16-66-21-29-59-29-38 0-59 29-15 21-15 66v97q0 45 15 65 21 29 59 29 38 0 59-29 16-20 16-65z m187 91v-279h-51v31q-30-35-58-35-25 0-33 21-4 13-4 42v220h51v-205q0-19 0-20 2-12 12-12 15 0 32 24v213h51z" horiz-adv-x="857.1" />
<glyph glyph-name="ok" unicode="&#xe004;" d="m498 700c58 0 106-48 106-107 0-58-48-106-106-106-59 0-107 48-107 106 0 59 48 107 107 107z m0-363c141 0 256 115 256 256 0 142-115 257-256 257-142 0-257-115-257-257 0-141 115-256 257-256z m104-210c52 12 102 33 149 62 35 22 45 68 23 104-22 35-68 45-103 23-106-66-241-66-346 0-35 22-82 12-104-23-22-36-11-82 24-104 46-29 96-50 149-62l-144-144c-29-29-29-77 0-106 15-15 34-22 53-22 20 0 39 7 54 22l141 141 141-141c29-29 77-29 106 0 30 29 30 77 0 106l-143 144" horiz-adv-x="1000" />
<glyph glyph-name="marker" unicode="&#xe005;" d="m0 475q0 156 109 266t266 109 266-109 109-266q0-78-28-160t-85-166-101-141-110-133q-20-25-49-25l-4 0q-29 0-49 25-66 77-110 133t-101 141-85 166-28 160z m63 0q0-72 28-150t85-161 95-128 100-120l2 0q2-2 2-4l4 4q62 73 100 120t94 128 86 161 29 150q0 129-92 221t-221 91-221-91-91-221z m125 8q0 78 54 133t133 54 133-54 55-133-55-133-133-55-133 55-54 133z m31 0q0-65 46-111t110-45 110 45 46 111-46 110-110 46-110-46-46-110z" horiz-adv-x="750" />
<glyph glyph-name="search" unicode="&#xe006;" d="m772 78q30-34 6-62l-46-46q-36-32-68 0l-190 190q-74-42-156-42-128 0-223 95t-95 223 90 219 218 91 224-95 96-223q0-88-46-162z m-678 358q0-88 68-156t156-68 151 63 63 153q0 88-68 155t-156 67-151-63-63-151z" horiz-adv-x="789" />
<glyph glyph-name="like" unicode="&#xe007;" d="m500-79q-14 0-25 10l-348 336q-5 5-15 15t-31 36-38 55-30 67-13 77q0 123 71 192t196 70q34 0 70-12t67-33 54-38 42-38q20 20 42 38t54 38 67 33 70 12q125 0 196-70t71-192q0-123-128-251l-347-335q-10-10-25-10z" horiz-adv-x="1000" />
<glyph glyph-name="calendar" unicode="&#xe008;" d="m959-150h-932c-15 0-27 12-27 27v825c0 14 12 26 27 26h932c14 0 26-12 26-26v-825c0-15-12-27-26-27z m-903 56h876v769h-876v-769z m866 547h-859c-14 0-26 13-26 27 0 15 12 27 26 27h859c15 0 27-12 27-27 2-14-10-27-27-27z m-654 151c-15 0-27 12-27 27v192c-3 15 10 27 27 27 14 0 26-12 26-27v-192c0-15-12-27-26-27z m226 0c-15 0-27 12-27 27v192c0 15 12 27 27 27 15 0 27-12 27-27v-192c0-15-12-27-27-27z m226 0c-14 0-27 12-27 27v192c0 15 13 27 27 27 15 0 27-12 27-27v-192c0-15-12-27-27-27z" horiz-adv-x="985" />
<glyph glyph-name="discount" unicode="&#xe009;" d="m529 682c-27 0-67-15-84-34l-378-375c-7-7-9-17-9-26 0-10 5-20 9-27l303-303c15-14 39-14 51 0l375 375c19 20 36 60 33 89l-12 245c-2 22-21 41-43 41l-243 15c0 0-2 0-2 0m-132-832c-24 0-48 10-65 26l-306 306c-16 17-26 41-26 65 0 24 10 48 26 65l378 377c31 31 89 53 132 50l243-14c50-2 91-46 96-96l14-243c3-43-19-101-50-132l-377-375c-17-17-41-29-65-29m432 678c-48 0-93 10-132 26-14 8-21 24-14 39 7 14 24 21 38 14 31-14 68-21 108-21 97 0 176 48 176 103 0 55-82 103-176 103-84 0-158-36-173-86-5-15-21-24-36-19-14 4-24 21-19 36 24 74 118 127 228 127 130 0 234-70 234-161 0-91-104-161-234-161" horiz-adv-x="1063" />
<glyph glyph-name="percent" unicode="&#xe010;" d="m501 797c-246 0-446-200-446-446s200-446 446-446 446 198 446 444-200 448-446 448m0-947c-277 0-501 224-501 499 0 277 224 501 501 501 277 0 501-224 501-501 0-275-226-499-501-499m-118 749c-36 0-67-28-67-67 0-36 29-67 67-67 36 0 68 28 68 67-3 39-32 67-68 67m0-188c-67 0-120 54-120 121 0 67 53 120 120 120 68 0 121-53 121-120 0-65-56-121-121-121m244-173c-37 0-68-29-68-67 0-37 29-68 68-68 36 0 67 29 67 68-2 36-31 67-67 67m0-188c-68 0-121 53-121 121 0 67 53 120 121 120 67 0 120-53 120-120 0-66-55-121-120-121m-316 80c-7 0-15 2-19 7-10 9-10 26 0 38l390 391c10 9 26 9 39 0 9-10 9-27 0-39l-391-390c-5-5-12-7-19-7m-89-314l0 0" horiz-adv-x="1002" />
<glyph glyph-name="rupor" unicode="&#xe011;" d="m955 201c-17 0-31 14-31 31 0 17 14 31 31 31 73 0 132 59 132 132 0 73-59 132-132 132-17 0-31 14-31 31 0 18 14 32 31 32 108 0 198-87 198-198 0-104-90-191-198-191m-52 559c-153-202-486-202-688-202-83 0-152-69-152-152s69-153 152-153c25 0 45 0 73 0 14 0 25-11 28-21l97-309 111 35-73 239c-3 11 0 21 7 32 7 6 18 13 28 10 198-28 340-94 420-198 0 163 0 417 0 424v0 267c0 10-3 21-3 28m-511-910c-3 0-10 0-13 3-7 4-14 11-14 18l-101 319c-17 0-31 0-49 0-118 0-215 98-215 216 0 118 97 215 215 215 198 0 532 0 653 198 14 28 31 31 45 31 56 0 56-87 56-118l0-271c0-3 0-10 0-10v-424c0-21-4-38-7-49-11-31-35-31-42-31-24 0-41 24-55 38-59 91-174 153-341 184l70-222c3-17-4-35-21-38l-174-52c0-7-3-7-7-7" horiz-adv-x="1153" />
<glyph glyph-name="tag" unicode="&#xe012;" d="m717 649v179c0 12-10 22-22 22h-673c-12 0-22-10-22-22v-758c0-12 10-21 22-21h184v46h-160v709h627v-157h44z m169-41h-627v-712h627v712z m46 24v-758c0-12-9-22-22-22h-673c-12 0-21 10-21 22v758c0 12 9 22 21 22h671c15 0 24-10 24-22" horiz-adv-x="932" />
<glyph glyph-name="wifi" unicode="&#xe014;" d="m525 50c-41 0-75 34-75 75s34 75 75 75c41 0 75-34 75-75s-34-75-75-75z m0 100c-14 0-25-11-25-25s11-25 25-25 25 11 25 25-11 25-25 25z m-172 52c-5 0-9 1-13 3-12 7-16 23-9 34 20 34 48 61 81 81 34 19 73 30 113 30s79-11 113-30c33-20 61-48 81-81 7-11 3-27-9-34s-27-3-34 9c-32 53-89 86-151 86s-119-33-151-86c-4-8-13-12-21-12z m452 108c-7 0-15 3-20 10-62 83-157 130-260 130s-198-47-260-130c-9-11-24-14-35-5s-14 24-5 35c34 45 79 83 129 109 54 27 111 41 171 41s118-14 171-41c50-26 95-64 129-109 9-11 6-27-5-35-4-4-9-5-15-5z m107 107c-7 0-14 3-19 9-91 111-225 174-368 174s-277-63-368-174c-9-11-24-13-35-4s-12 25-3 35c100 123 248 193 406 193s306-70 407-193c8-10 7-26-4-35-5-4-10-5-16-5z" horiz-adv-x="1000" />
<glyph glyph-name="dinner" unicode="&#xe015;" d="m421 673c-9 41-21 92-21 152 0 14-11 25-25 25s-25-11-25-25c0-65 13-120 23-164 10-42 17-76 6-90-9-12-36-19-79-21 0 9 0 17 0 25v200c0 14-11 25-25 25s-25-11-25-25v-200c0 0 0 0 0 0s0 0 0 0c0-8 0-16 0-25-43 2-70 9-79 21-11 14-3 48 6 91 11 43 23 98 23 163 0 14-11 25-25 25s-25-11-25-25c0-60-12-111-21-152-13-56-23-100 3-133 19-25 55-37 117-40-6-139-26-259-43-358-22-133-37-220 1-264 15-19 38-28 68-28s53 9 69 28c37 44 23 132 0 264-16 99-37 219-42 358 61 3 97 15 117 40 26 33 16 77 3 133z m-116-763c-3-4-10-10-30-10s-27 6-30 10c-23 27-8 118 10 223 7 39 14 80 20 124 7-44 13-85 20-123 18-106 33-197 10-224z m449 545c56 21 96 99 96 195 0 112-55 200-125 200s-125-88-125-200c0-96 40-174 96-195-8-121-25-227-40-313-22-132-37-220 1-264 15-19 38-28 68-28s53 9 69 28c37 44 22 132 0 264-14 86-32 192-40 313z m-104 195c0 88 40 150 75 150s75-62 75-150-39-150-75-150-75 62-75 150z m105-740c-3-4-10-10-30-10s-27 6-30 10c-23 27-7 118 10 223 7 38 14 79 20 124 7-45 14-86 20-123 18-106 33-197 10-224z" horiz-adv-x="1000" />
<glyph glyph-name="calendar-full" unicode="&#xe016;" d="m925 750h-125v25c0 14-11 25-25 25s-25-11-25-25v-25h-500v25c0 14-11 25-25 25s-25-11-25-25v-25h-125c-41 0-75-34-75-75v-700c0-41 34-75 75-75h850c41 0 75 34 75 75v700c0 41-34 75-75 75z m-850-50h125v-75c0-14 11-25 25-25s25 11 25 25v75h500v-75c0-14 11-25 25-25s25 11 25 25v75h125c14 0 25-11 25-25v-125h-900v125c0 14 11 25 25 25z m850-750h-850c-14 0-25 11-25 25v525h900v-525c0-14-11-25-25-25z m-550 400h-50c-14 0-25 11-25 25s11 25 25 25h50c14 0 25-11 25-25s-11-25-25-25z m150 0h-50c-14 0-25 11-25 25s11 25 25 25h50c14 0 25-11 25-25s-11-25-25-25z m150 0h-50c-14 0-25 11-25 25s11 25 25 25h50c14 0 25-11 25-25s-11-25-25-25z m150 0h-50c-14 0-25 11-25 25s11 25 25 25h50c14 0 25-11 25-25s-11-25-25-25z m-600-100h-50c-14 0-25 11-25 25s11 25 25 25h50c14 0 25-11 25-25s-11-25-25-25z m150 0h-50c-14 0-25 11-25 25s11 25 25 25h50c14 0 25-11 25-25s-11-25-25-25z m150 0h-50c-14 0-25 11-25 25s11 25 25 25h50c14 0 25-11 25-25s-11-25-25-25z m150 0h-50c-14 0-25 11-25 25s11 25 25 25h50c14 0 25-11 25-25s-11-25-25-25z m150 0h-50c-14 0-25 11-25 25s11 25 25 25h50c14 0 25-11 25-25s-11-25-25-25z m-600-100h-50c-14 0-25 11-25 25s11 25 25 25h50c14 0 25-11 25-25s-11-25-25-25z m150 0h-50c-14 0-25 11-25 25s11 25 25 25h50c14 0 25-11 25-25s-11-25-25-25z m150 0h-50c-14 0-25 11-25 25s11 25 25 25h50c14 0 25-11 25-25s-11-25-25-25z m150 0h-50c-14 0-25 11-25 25s11 25 25 25h50c14 0 25-11 25-25s-11-25-25-25z m150 0h-50c-14 0-25 11-25 25s11 25 25 25h50c14 0 25-11 25-25s-11-25-25-25z m-600-100h-50c-14 0-25 11-25 25s11 25 25 25h50c14 0 25-11 25-25s-11-25-25-25z m150 0h-50c-14 0-25 11-25 25s11 25 25 25h50c14 0 25-11 25-25s-11-25-25-25z m150 0h-50c-14 0-25 11-25 25s11 25 25 25h50c14 0 25-11 25-25s-11-25-25-25z m150 0h-50c-14 0-25 11-25 25s11 25 25 25h50c14 0 25-11 25-25s-11-25-25-25z m150 0h-50c-14 0-25 11-25 25s11 25 25 25h50c14 0 25-11 25-25s-11-25-25-25z" horiz-adv-x="1000" />
<glyph glyph-name="store" unicode="&#xe017;" d="m900 375v50c0 4-1 8-3 11l-100 200c-4 9-12 14-22 14h-600c-9 0-18-5-22-14l-100-200c-2-3-3-7-3-11v-50c0-41 20-77 50-100v-325h-25c-14 0-25-11-25-25s11-25 25-25h800c14 0 25 11 25 25s-11 25-25 25h-25v325c30 23 50 59 50 100z m-325-75c-41 0-75 34-75 75v25h150v-25c0-41-34-75-75-75z m-475 75v25h150v-25c0-41-34-75-75-75s-75 34-75 75z m350 225v-150h-143l38 150h105z m156 0l37-150h-143v150h106z m-306-200h150v-25c0-41-34-75-75-75s-75 34-75 75v25z m400 0h150v-25c0-41-34-75-75-75s-75 34-75 75v25z m135 50h-140l-38 150h103l75-150z m-644 150h102l-37-150h-141l75 150z m-41-347c8-2 16-3 25-3 41 0 77 20 100 50 23-30 59-50 100-50s77 20 100 50c18-24 45-41 75-47v-303h-400v303z m650-303h-200v303c31 6 57 23 75 47 23-30 59-50 100-50 9 0 17 1 25 2v-302z m-100 175c0-14-11-25-25-25s-25 11-25 25c0 14 11 25 25 25s25-11 25-25z m-475-25c-6 0-13 3-18 7-9 10-9 26 0 36l50 50c10 9 26 9 36 0s9-26 0-36l-50-50c-5-5-12-7-18-7z m50-100c-6 0-13 3-18 7-9 10-9 26 0 36l150 150c10 9 26 9 36 0s9-26 0-36l-150-150c-5-5-12-7-18-7z m150 0c-6 0-13 3-18 7-9 10-9 26 0 36l50 50c10 9 26 9 36 0s9-26 0-36l-50-50c-5-5-12-7-18-7z" horiz-adv-x="1000" />
<glyph glyph-name="baby" unicode="&#xe018;" d="m675 300c-41 0-75 34-75 75s34 75 75 75 75-34 75-75c0-41-34-75-75-75z m0 100c-14 0-25-11-25-25s11-25 25-25 25 11 25 25-11 25-25 25z m-350-100c-41 0-75 34-75 75s34 74 75 74 75-33 75-74c0-41-34-75-75-75z m0 99c-14 0-25-11-25-24s11-25 25-25 25 11 25 25-11 24-25 24z m175-349c-84 0-161 42-208 111-8 12-4 27 7 35s27 4 35-7c37-56 99-89 166-89s129 33 166 89c8 11 24 15 35 7s15-23 7-35c-47-69-124-111-208-111z m421 409c-33 89-94 165-173 217 1 12 2 29 2 49-1 53-9 77-10 80-7 20-21 34-39 41s-39 3-56-8l-87-57c-16 12-36 19-58 19s-42-7-58-19l-86 57c-18 11-38 14-57 8s-32-21-39-41c-1-3-9-27-10-80 0-20 1-37 2-49-78-52-139-128-173-217-50-37-79-96-79-159s29-121 79-159c32-83 87-155 159-207 77-55 167-84 262-84s185 29 262 84c73 52 128 124 159 207 50 38 79 97 79 159s-29 122-79 159z m-249 337c4 3 9 4 13 2s6-4 8-9c0-2 6-22 7-64 1-42-5-62-6-63-2-6-6-10-11-12-4-1-10-1-15 2l-69 36c1 4 1 8 1 12 0 15-3 30-9 43l81 53z m-172-46c28 0 50-22 50-50s-22-50-50-50c-28 0-50 22-50 50s22 50 50 50z m-200-25c1 42 7 62 7 63 2 6 5 9 9 10s8 1 12-2l82-53c-6-13-10-28-10-43 0-4 0-8 1-12l-68-36c-6-3-11-4-16-2-5 2-9 6-11 12 0 1-7 21-6 63z m586-548c-4-3-8-7-9-12-57-158-209-265-377-265s-320 107-377 265c-1 5-5 9-9 12-40 28-64 74-64 123s24 95 64 123c4 3 8 7 9 12 28 77 79 144 146 191 8-10 18-18 30-22 8-3 16-5 24-5 11 0 22 3 33 9l63 33c18-25 48-41 81-41s63 16 81 41l63-33c11-6 22-9 34-9 8 0 16 2 23 5 12 4 23 12 30 22 67-47 118-114 146-191 1-5 5-9 9-12 40-28 64-74 64-123s-24-95-64-123z" horiz-adv-x="1000" />
<glyph glyph-name="profile" unicode="&#xe019;" d="m925 0h-850c-41 0-75 34-75 75v550c0 41 34 75 75 75h850c41 0 75-34 75-75v-550c0-41-34-75-75-75z m-850 650c-14 0-25-11-25-25v-550c0-14 11-25 25-25h850c14 0 25 11 25 25v550c0 14-11 25-25 25h-850z m350-500c0 0 0 0 0 0h-250c-14 0-25 11-25 25 0 3 1 33 19 63 18 28 55 62 131 62s113-34 131-62c17-27 19-53 19-61 0-1 0-1 0-2 0-14-11-25-25-25z m-219 50h188c-2 4-4 9-7 13-16 25-45 37-87 37s-71-12-87-37c-3-4-5-9-7-13z m619 250h-250c-14 0-25 11-25 25s11 25 25 25h250c14 0 25-11 25-25s-11-25-25-25z m-50-100h-200c-14 0-25 11-25 25s11 25 25 25h200c14 0 25-11 25-25s-11-25-25-25z m0-100h-200c-14 0-25 11-25 25s11 25 25 25h200c14 0 25-11 25-25s-11-25-25-25z m-475 100c-55 0-100 45-100 100s45 100 100 100 100-45 100-100c0-55-45-100-100-100z m0 150c-28 0-50-22-50-50s22-50 50-50 50 22 50 50-22 50-50 50z m525-350h-250c-14 0-25 11-25 25s11 25 25 25h250c14 0 25-11 25-25s-11-25-25-25z" horiz-adv-x="1000" />
<glyph glyph-name="film-play" unicode="&#xe020;" d="m375 100c-4 0-8 1-11 3-9 4-14 13-14 22v450c0 9 5 18 14 22s18 4 26-2l300-225c6-5 10-12 10-20s-4-15-10-20l-300-225c-4-3-10-5-15-5z m25 425v-350l233 175-233 175z m575 225h-950c-14 0-25-11-25-25v-750c0-14 11-25 25-25h950c14 0 25 11 25 25v750c0 14-11 25-25 25z m-825-450h-100v100h100v-100z m0 150h-100v100h100v-100z m-100-200h100v-100h-100v100z m150 450h600v-700h-600v700z m650-300h100v-100h-100v100z m0 50v100h100v-100h-100z m0-200h100v-100h-100v100z m100 350h-100v100h100v-100z m-800 100v-100h-100v100h100z m-100-600h100v-100h-100v100z m800-100v100h100v-100h-100z" horiz-adv-x="1000" />
<glyph glyph-name="circle" unicode="&#xe022;" d="m857 350q0-117-57-215t-156-156-215-58-216 58-155 156-58 215 58 215 155 156 216 58 215-58 156-156 57-215z" horiz-adv-x="857.1" />
<glyph glyph-name="circle-empty" unicode="&#xe023;" d="m429 654q-83 0-153-41t-110-111-41-152 41-152 110-111 153-41 152 41 110 111 41 152-41 152-110 111-152 41z m428-304q0-117-57-215t-156-156-215-58-216 58-155 156-58 215 58 215 155 156 216 58 215-58 156-156 57-215z" horiz-adv-x="857.1" />
<glyph glyph-name="pig" unicode="&#xe024;" d="m1263 316h-97c-19 0-35 15-35 34 0 19 16 34 35 34h97c18 0 34-15 34-34 3-16-16-34-34-34m-413-394h109v147c0 12 7 22 16 31 97 66 153 159 153 256 0 191-206 344-459 344-63 0-125-9-181-28-13-3-25 0-35 6-94 78-212 97-281 103l112-200c7-12 7-28-3-40-15-19-31-41-40-63-7-12-19-19-32-19h-137v-200h134c13 0 25-6 32-18 31-60 81-113 146-150 10-7 19-19 19-32v-131h110v63c0 9 6 22 12 28 9 6 19 9 28 6 81-16 172-16 253 6 10 3 22 0 32-6 9-6 12-16 12-28v-75z m144-72h-181c-19 0-35 16-35 34v60c-65-10-131-13-197-3v-57c0-18-15-34-34-34h-181c-19 0-35 16-35 34v147c-62 41-112 91-147 150h-150c-18 0-34 16-34 35v272c0 18 16 34 34 34h147c10 16 19 28 28 41l-131 234c-6 9-6 22 0 34 6 10 16 16 28 19 0 0 13 0 28 0 63 0 222-9 347-109 60 18 122 25 188 25 294 0 531-188 531-416 0-116-62-225-172-306v-163c3-15-12-31-34-31" horiz-adv-x="1300" />
<glyph glyph-name="gift" unicode="&#xe025;" d="m104 575c-26 0-46-19-46-45v-573c0-26 20-46 46-46h618c26 0 45 20 45 46v569c0 26-19 46-45 46h-618z m618-725h-618c-55 0-104 45-104 104v572c0 59 45 104 104 104h618c58 0 103-45 103-104v-572c0-56-48-104-103-104m45 489h-709c-16 0-29 13-29 29 0 16 13 29 29 29h709c16 0 29-13 29-29-3-16-13-29-29-29m-217 239c-13 0-22 7-26 20-3 16 4 29 20 35 45 13 84 42 97 71 6 13 6 26 0 39-13 23-33 39-58 46-20 6-39 3-55-10-36-23-62-88-78-133-3-10-10-22-13-29-7-13-23-19-36-13-13 7-19 23-13 36 4 6 7 16 13 29 23 52 52 126 101 158 29 20 64 26 100 17 39-10 74-39 94-75 13-26 16-58 3-87-19-46-71-88-133-104-9 0-13 0-16 0m-307 0c-3 0-7 0-7 0-61 20-113 62-132 107-13 29-13 58 3 84 19 36 55 65 94 75 35 13 71 6 100-13 49-33 78-107 100-159 4-10 7-19 13-29 7-13 0-32-13-36-13-6-32 0-35 13-3 10-7 20-13 29-16 42-46 110-78 133-19 13-42 13-61 10-23-7-46-26-59-49-6-9-6-22 0-35 13-29 52-59 97-72 17-3 23-19 20-35-3-13-16-23-29-23" horiz-adv-x="825" />
<glyph glyph-name="sun" unicode="&#xe026;" d="m500 533c-103 0-183-84-183-183 0-103 84-183 183-183 103 0 183 84 183 183 0 103-84 183-183 183m0-443c-144 0-260 119-260 260 0 144 119 260 260 260 144 0 260-119 260-260 0-144-116-260-260-260m6 597c-22 0-38 16-38 38v87c0 22 16 38 38 38 20 0 39-16 39-38v-87c0-22-19-38-39-38m-189-48c-12 0-25 6-35 19l-42 73c-9 20-3 45 13 55 19 10 42 3 55-13l45-74c9-19 3-41-13-54-10-6-16-6-23-6m-137-135c-7 0-13 3-20 6l-77 42c-19 10-25 35-12 54 9 20 35 26 54 13l74-45c19-9 25-32 13-51-7-13-20-19-32-19m-55-186h-86c-23 0-39 16-39 38 0 23 16 39 39 39h86c22 0 39-16 39-39 0-22-17-38-39-38m-26-231c-12 0-25 7-32 19-9 20-3 42 13 55l74 45c19 9 42 3 54-13 10-22 4-48-16-58l-73-45c-7-3-13-3-20-3m167-173c-6 0-13 3-19 6-19 10-26 36-13 55l42 74c9 19 35 25 54 13 19-10 26-36 13-55l-42-74c-9-9-22-19-35-19m228-64c-23 0-39 16-39 38v87c0 22 16 39 39 39 22 0 38-17 38-39v-87c0-19-16-38-38-38m230 61c-12 0-25 6-35 19l-45 74c-9 19-3 42 13 54 19 10 42 4 55-12l44-74c10-19 4-42-12-55-7-6-13-6-20-6m170 167c-6 0-13 3-19 6l-74 42c-19 9-25 35-12 54 9 19 35 26 54 13l74-45c19-9 25-35 13-54-7-10-20-16-36-16m68 227h-87c-22 0-38 16-38 39 0 22 16 38 38 38h87c22 0 38-16 38-38 0-20-19-39-38-39m-135 189c-13 0-26 7-32 20-10 19-3 41 13 54l73 42c20 9 42 3 55-13 10-19 3-42-13-55l-74-45c-9-3-16-3-22-3m-135 138c-6 0-12 3-19 7-19 9-26 35-13 54l45 74c10 19 35 25 55 13 19-10 25-36 12-55l-44-74c-10-12-23-19-36-19" horiz-adv-x="1000" />
<glyph glyph-name="arrow-right" unicode="&#xe027;" d="m504 832c-271 0-491-220-491-491 0-271 220-491 491-491 271 0 491 220 491 491 0 271-220 491-491 491z m203-536l-210-210c-19-19-51-19-70 0l-17 18c-20 19-20 50 0 70l160 160-160 160c-20 19-20 51 0 70l17 18c19 19 51 19 70 0l210-210c10-11 15-25 14-38 1-14-4-28-14-38z" horiz-adv-x="1000" />
<glyph glyph-name="caret-right" unicode="&#xe028;" d="m871 352c0-15-6-28-17-40l-553-393c-11-11-25-17-40-17s-28 6-39 17c-11 11-17 24-17 39v787c0 16 6 29 17 40 11 11 24 17 39 17s29-6 40-17l553-393c11-12 17-25 17-40z" horiz-adv-x="1000" />
<glyph glyph-name="av-icon-chevron-up" unicode="&#xe800;" d="m0 100c0-6 3-13 7-18 10-9 26-9 36 0l432 433 432-433c10-9 26-9 36 0s9 26 0 36l-450 450c-10 9-26 9-36 0l-450-450c-5-5-7-12-7-18z" horiz-adv-x="1000" />
<glyph glyph-name="star-1" unicode="&#xe801;" d="m929 489q0-12-15-27l-203-197 48-279q1-4 1-12 0-11-6-19t-17-9q-10 0-22 7l-251 132-250-132q-13-7-23-7-11 0-17 9t-6 19q0 4 1 12l48 279-203 197q-14 15-14 27 0 21 31 26l280 40 126 254q11 23 27 23t28-23l125-254 280-40q32-5 32-26z" horiz-adv-x="928.6" />
<glyph glyph-name="0387-map2" unicode="&#xe802;" d="m938 796c-7 5-16 5-24 1l-289-144-289 144c-7 4-15 4-22 0l-300-150c-8-4-14-13-14-22v-750c0-9 5-17 12-21 4-3 9-4 13-4 4 0 8 1 11 3l289 144 289-144c7-4 15-4 22 0l300 150c9 4 14 13 14 22v750c0 9-4 17-12 21z m-638-755l-250-126v695l250 125v-694z m50 694l250-125v-695l-250 126v694z m550-694l-250-126v695l250 125v-694z" horiz-adv-x="1000" />
<glyph glyph-name="0813-list" unicode="&#xe803;" d="m975 50h-750c-14 0-25 11-25 25s11 25 25 25h750c14 0 25-11 25-25s-11-25-25-25z m0 250h-750c-14 0-25 11-25 25s11 25 25 25h750c14 0 25-11 25-25s-11-25-25-25z m0 250h-750c-14 0-25 11-25 25s11 25 25 25h750c14 0 25-11 25-25s-11-25-25-25z m-900-50c-41 0-75 34-75 75s34 75 75 75 75-34 75-75-34-75-75-75z m0 100c-14 0-25-11-25-25s11-25 25-25 25 11 25 25-11 25-25 25z m0-350c-41 0-75 34-75 75s34 75 75 75 75-34 75-75c0-41-34-75-75-75z m0 100c-14 0-25-11-25-25s11-25 25-25 25 11 25 25-11 25-25 25z m0-350c-41 0-75 34-75 75s34 75 75 75 75-34 75-75-34-75-75-75z m0 100c-14 0-25-11-25-25s11-25 25-25 25 11 25 25-11 25-25 25z" horiz-adv-x="1000" />
<glyph glyph-name="0822-cross2" unicode="&#xe804;" d="m535 325l433 432c9 10 9 26 0 36s-26 9-36 0l-432-433-432 433c-10 9-26 9-36 0s-9-26 0-36l433-432-433-432c-9-10-9-26 0-36 5-5 12-7 18-7s13 2 18 7l432 433 432-433c5-5 12-7 18-7s13 2 18 7c10 10 10 26 0 36l-432 432z" horiz-adv-x="1000" />
<glyph glyph-name="search-1" unicode="&#xe805;" d="m944-108l-298 324c67 70 104 162 104 259 0 100-39 194-110 265s-165 110-265 110-194-39-265-110-110-165-110-265 39-194 110-265 165-110 265-110c86 0 168 29 235 82l297-324c5-5 11-8 18-8 6 0 12 2 17 7 10 9 11 25 2 35z m-894 583c0 179 146 325 325 325s325-146 325-325-146-325-325-325-325 146-325 325z" horiz-adv-x="1000" />
<glyph glyph-name="share" unicode="&#xe806;" d="m491 741c0-44 0-83 0-127-5 0-14 0-18 0-72 0-147 0-218 0-27 0-37-10-37-37 0-153 0-319 0-472 0-26 11-37 37-37 154 0 318 0 472 0 26 0 37 11 37 37 0 71 0 146 0 218 0 5 0 12 0 18 43 0 83 0 127 0 0-4 0-14 0-18 0-73 0-145 0-218 0-82-58-146-138-162-11-2-33-2-44-2-155 0-299 0-454 0-84 0-146 52-162 133-2 10-2 20-2 31 0 155 0 311 0 466 0 94 70 170 164 170 73 0 147 0 221 0 3 0 10 0 15 0z m291 0c-28 0-66 0-91 0 0 43 0 65 0 109 100 0 209 0 309 0 0-99 0-209 0-309-44 0-84 0-127 0 0 24 0 67 0 91-126-126-257-257-382-382-33 33-60 60-91 91 125 125 254 272 382 400z" horiz-adv-x="1000" />
<glyph glyph-name="pointer" unicode="&#xe807;" d="m500-150c-14 18-27 35-40 52-70 94-137 191-196 292-37 62-72 126-97 195-11 29-20 58-23 89-1 17 0 35 1 53 1 28 7 55 17 81 46 121 132 197 257 229 22 6 44 8 67 9 90 3 170-23 240-80 66-53 108-122 124-206 4-22 6-45 7-67 0-30-8-59-17-88-17-53-41-103-68-152-78-142-171-275-269-404-1-1-2-1-3-3z m0 96c2 2 3 3 4 5 73 98 142 199 202 305 29 51 55 103 75 159 9 23 16 46 18 71 1 25-1 50-6 75-28 125-137 221-271 231-27 2-54 1-80-5-95-20-165-72-210-158-16-30-26-63-30-97-1-16-2-33-1-49 2-23 9-44 16-65 22-62 53-121 86-178 58-100 124-196 192-289 2-2 3-3 5-5z m0 492c-33 0-58 25-58 58 0 31 26 57 58 57 35-1 58-30 58-58-1-32-26-57-58-57z" horiz-adv-x="1000" />
<glyph glyph-name="chevron-right-circle" unicode="&#xe808;" d="m811 661c-90 90-209 139-336 139s-246-49-336-139-139-209-139-336 49-246 139-336 209-139 336-139 246 49 336 139 139 209 139 336-49 246-139 336z m-336-761c-234 0-425 191-425 425s191 425 425 425c234 0 425-191 425-425s-191-425-425-425z m-75 150c-6 0-13 3-18 7-9 10-9 26 0 36l233 232-233 232c-9 10-9 26 0 36s26 9 36 0l250-250c9-10 9-26 0-36l-250-250c-5-5-12-7-18-7z" horiz-adv-x="1000" />
<glyph glyph-name="chevron-left-circle" unicode="&#xe809;" d="m139 661c90 90 209 139 336 139s246-49 336-139 139-209 139-336-49-246-139-336-209-139-336-139-246 49-336 139-139 209-139 336 49 246 139 336z m336-761c234 0 425 191 425 425s-191 425-425 425c-234 0-425-191-425-425s191-425 425-425z m75 150c6 0 13 3 18 7 10 10 10 26 0 36l-233 232 233 232c10 10 10 26 0 36s-26 9-36 0l-250-250c-9-10-9-26 0-36l250-250c5-5 12-7 18-7z" horiz-adv-x="1000" />
<glyph glyph-name="av-envelope" unicode="&#xe80a;" d="m921 670h-842c-42 0-79-37-79-79v-474c0-42 37-79 79-79h842c42 0 79 37 79 79v474c0 42-37 79-79 79z m0-53c0 0 5 0 0 0l-389-263c-16-10-43-10-58 0l-400 263h5 842l0 0z m0-526h-842c-16 0-26 10-26 26v453l389-258c16-10 37-16 58-16s42 5 58 16l389 258v-453c0-15-10-26-26-26z" horiz-adv-x="1000" />
<glyph glyph-name="av-picture-icon" unicode="&#xe80b;" d="m675 400c-69 0-125 56-125 125s56 125 125 125 125-56 125-125-56-125-125-125z m0 200c-41 0-75-34-75-75s34-75 75-75 75 34 75 75-34 75-75 75z m250 250h-850c-41 0-75-34-75-75v-850c0-41 34-75 75-75h850c41 0 75 34 75 75v850c0 41-34 75-75 75z m-875-925v240l210 231c4 5 10 8 16 8s11-3 15-7l476-497h-692c-14 0-25 11-25 25z m900 0c0-14-11-25-25-25h-89l-508 531c-14 15-33 23-53 23s-38-9-52-24l-173-190v535c0 14 11 25 25 25h850c14 0 25-11 25-25v-850z" horiz-adv-x="1000" />
<glyph glyph-name="launch" unicode="&#xe80c;" d="m975 850h-250c-14 0-25-11-25-25s11-25 25-25h192l-560-557c-9-10-9-26 0-36 5-5 12-7 18-7s13 2 18 7l557 556v-188c0-14 11-25 25-25s25 11 25 25v250c0 14-11 25-25 25z m-150-1000h-750c-41 0-75 34-75 75v750c0 41 34 75 75 75h500c14 0 25-11 25-25s-11-25-25-25h-500c-14 0-25-11-25-25v-750c0-14 11-25 25-25h750c14 0 25 11 25 25v500c0 14 11 25 25 25s25-11 25-25v-500c0-41-34-75-75-75z" horiz-adv-x="1000" />
<glyph glyph-name="av-icon-arrow-wave" unicode="&#xe80d;" d="m943 168c-10 9-26 9-36 0l-107-108v465c0 97-78 175-175 175s-175-78-175-175v-400c0-69-56-125-125-125s-125 56-125 125v465l107-108c5-4 12-7 18-7s13 3 18 7c10 10 10 26 0 36l-150 150c-10 10-26 10-36 0l-150-150c-9-10-9-26 0-36s26-9 36 0l107 108v-465c0-96 79-175 175-175s175 79 175 175v400c0 69 56 125 125 125s125-56 125-125v-465l-107 108c-10 10-26 10-36 0s-9-26 0-36l150-150c5-5 12-7 18-7s13 2 18 7l150 150c10 10 10 26 0 36z" horiz-adv-x="1000" />
<glyph glyph-name="av-icon-watch" unicode="&#xe80e;" d="m816 376h-37c-16 69-53 127-100 169l-42 179c-5 42-42 73-84 73h-211c-42 0-79-31-89-73l-42-179c-64-63-106-148-106-248s42-184 106-247l42-179c10-42 47-74 89-74h211c42 0 79 32 89 74l42 179c48 47 84 105 100 168h37c42 0 79 37 79 79s-42 79-84 79z m-511 337c0 16 21 32 37 32h211c15 0 37-16 37-32l26-121c-48 32-105 48-169 48s-121-16-168-48l26 121z m285-831c-6-16-22-32-37-32h-211c-16 0-37 16-37 32l-26 121c53-27 111-48 168-48s121 16 169 48c0 0-26-121-26-121z m-143 126c-157 0-289 132-289 289s132 290 289 290 290-132 290-290-132-289-290-289z m369 263h-26c0 11 0 16 0 26s0 16 0 27h26c16 0 26-11 26-27s-10-26-26-26z m-369 0c-5 0-10 0-10 5l-105 53c-16 5-21 21-11 32s21 15 37 10l89-47 148 94c10 11 26 6 37-5 10-10 5-26-6-37l-158-105c-10 0-15 0-21 0l0 0z" horiz-adv-x="789" />
<glyph glyph-name="av-icon-arrows-split" unicode="&#xe80f;" d="m974 797h-263c-16 0-27-10-27-26s11-26 27-26h200l-427-427c-5-5-10-15-10-21v-473c0-16 10-27 26-27s26 11 26 27v463l421 421v-200c0-16 11-26 27-26s26 10 26 26v263c0 16-10 26-26 26l0 0z m-558-373l-326 321h200c15 0 26 10 26 26s-11 26-26 26h-264c-15 0-26-10-26-26v-263c0-16 11-26 26-26s27 10 27 26v200l321-321c5-11 16-11 21-11s16 0 21 6c10 10 10 31 0 42l0 0z" horiz-adv-x="1000" />
<glyph glyph-name="av-icon-telephone" unicode="&#xe810;" d="m800-150c-88 0-183 25-280 75-90 45-178 111-256 189s-143 166-189 256c-49 97-74 191-74 280 0 57 53 113 76 134 33 31 85 66 123 66 19 0 41-12 69-39 22-19 46-46 69-77 15-18 87-113 87-159 0-37-42-63-87-91-17-10-35-21-48-32-14-11-16-17-17-18 48-118 193-263 311-311 1 1 7 3 18 17 11 13 22 31 32 48 28 45 54 87 91 87 46 0 140-72 159-87 31-23 58-47 77-69 27-28 39-50 39-69 0-38-36-90-66-123-21-23-77-77-134-77z m-600 950c-14 0-50-17-89-53-37-34-60-71-60-97 0-336 413-750 749-750 26 0 63 23 97 61 36 39 53 75 53 89-2 9-28 46-100 102-62 47-112 73-125 73-1 0-6-2-18-17-9-12-20-29-30-46-28-46-55-89-93-89-6 0-12 2-18 4-131 52-287 208-339 339-6 16-7 40 24 68 16 15 39 29 61 43 17 10 34 21 46 31 15 11 17 17 17 17 0 13-26 64-73 125-56 72-93 99-102 100z" horiz-adv-x="1000" />
<glyph glyph-name="av-icon-parking" unicode="&#xe811;" d="m275 50c-41 0-75 34-75 75s34 75 75 75 75-34 75-75-34-75-75-75z m0 100c-14 0-25-11-25-25s11-25 25-25 25 11 25 25-11 25-25 25z m450-100c-41 0-75 34-75 75s34 75 75 75 75-34 75-75-34-75-75-75z m0 100c-14 0-25-11-25-25s11-25 25-25 25 11 25 25-11 25-25 25z m143 87c-6 7-12 13-20 18-7 39-28 160-51 206-24 48-105 70-168 80-14 2-27-7-29-21s8-27 21-29c84-12 123-35 132-52 14-29 30-105 40-159-3 0-5 1-7 2-64 17-152 18-261 18 0 0 0 0 0 0-14 0-25-11-25-25s11-25 25-25c105 0 190-1 248-17 55-14 77-38 77-83v-125c0-14-11-25-25-25h-650c-14 0-25 11-25 25v125c0 15 3 28 8 39 6 12 1 27-11 33s-27 2-33-11c-9-17-14-38-14-61v-125c0-33 21-60 50-71v-54c0-28 23-50 50-50h50c28 0 50 22 50 50v50h400v-50c0-28 23-50 50-50h50c28 0 50 22 50 50v54c29 11 50 38 50 71v125c0 36-11 65-32 87z m-618-337h-50v50h50v-50z m500 0v50h50v-50h-50z m-525 450c-14 0-25 11-25 25v250c0 14 11 25 25 25h75c55 0 100-45 100-100s-45-100-100-100h-50v-75c0-14-11-25-25-25z m25 150h50c28 0 50 22 50 50s-22 50-50 50h-50v-100z m25-250c-152 0-275 123-275 275s123 275 275 275 275-123 275-275-123-275-275-275z m0 500c-124 0-225-101-225-225s101-225 225-225 225 101 225 225-101 225-225 225z" horiz-adv-x="1000" />
<glyph glyph-name="av-icon-window" unicode="&#xe812;" d="m925 800h-850c-41 0-75-34-75-75v-750c0-41 34-75 75-75h850c41 0 75 34 75 75v750c0 41-34 75-75 75z m-850-50h850c14 0 25-11 25-25v-125h-900v125c0 14 11 25 25 25z m850-800h-850c-14 0-25 11-25 25v575h900v-575c0-14-11-25-25-25z m-775 725c0-14-11-25-25-25s-25 11-25 25c0 14 11 25 25 25s25-11 25-25z m100 0c0-14-11-25-25-25s-25 11-25 25c0 14 11 25 25 25s25-11 25-25z m100 0c0-14-11-25-25-25s-25 11-25 25c0 14 11 25 25 25s25-11 25-25z" horiz-adv-x="1000" />
<glyph glyph-name="av-icon-clock3" unicode="&#xe813;" d="m811 661c-90 90-209 139-336 139s-246-49-336-139c-90-90-139-209-139-336s49-246 139-336 209-139 336-139 246 49 336 139 139 209 139 336-49 246-139 336z m-336-761c-234 0-425 191-425 425s191 425 425 425 425-191 425-425-191-425-425-425z m281 588c-6 11-22 16-34 9l-246-142-191 134c-12 8-27 5-35-6s-5-27 6-35l205-143c0 0 0 0 0-1 0 0 1 0 1 0 0 0 0 0 1-1 0 0 0 0 1 0 0 0 0 0 0 0 1-1 1-1 2-1 0 0 0 0 1 0 0-1 0-1 0-1 1 0 1 0 1 0 1 0 1 0 1 0 0 0 1 0 1 0 0 0 0-1 1-1 0 0 0 0 1 0s0 0 1 0c0 0 0 0 0 0 1 0 2 0 2 0 1 0 2 0 3 0 0 0 0 0 0 0 1 0 2 0 3 1 0 0 0 0 0 0 1 0 2 0 3 1 0 0 0 0 0 0 1 0 1 0 2 1 0 0 1 0 1 0 0 0 0 0 1 0l259 150c12 7 16 23 9 35z" horiz-adv-x="1000" />
<glyph glyph-name="av-icon-layers" unicode="&#xe814;" d="m500 250c-3 0-7 1-10 2l-475 200c-9 4-15 13-15 23s6 19 15 23l475 200c7 3 14 3 20 0l475-200c9-4 15-13 15-23s-6-19-15-23l-475-200c-3-1-7-2-10-2z m-411 225l411-173 411 173-411 173-411-173z m411-375c-3 0-7 1-10 2l-475 200c-12 5-18 20-13 33s20 18 33 13l465-196 465 196c13 5 28 0 33-13s-1-28-13-33l-475-200c-3-1-7-2-10-2z m0-150c-3 0-7 1-10 2l-475 200c-12 5-18 20-13 33s20 18 33 13l465-196 465 196c13 5 28 0 33-13s-1-28-13-33l-475-200c-3-1-7-2-10-2z" horiz-adv-x="1000" />
<glyph glyph-name="0827-chevron-down" unicode="&#xe815;" d="m0 550c0 6 3 13 7 18 10 9 26 9 36 0l432-433 432 433c10 9 26 9 36 0s9-26 0-36l-450-450c-10-9-26-9-36 0l-450 450c-5 5-7 12-7 18z" horiz-adv-x="1000" />
<glyph glyph-name="category-entertainment" unicode="&#xe816;" d="m208 544c-5 0-11 3-14 6-4 4-6 9-6 14 0 6 2 11 6 15 3 3 9 6 14 6 5 0 10-3 14-6 4-4 6-9 6-15 0-5-2-10-6-14-4-3-9-6-14-6z m80 81c-5 0-10 2-14 6-4 3-6 8-6 14 0 5 2 10 6 14 4 4 9 6 14 6s11-2 14-6c4-4 6-9 6-14s-2-11-6-14c-3-4-9-6-14-6z m-80-161c-5 0-11 2-14 6-4 4-6 9-6 14 0 5 2 11 6 14 4 4 9 6 14 6 5 0 10-2 14-6 4-3 6-9 6-14 0-5-2-10-6-14-4-4-9-6-14-6z m80 80c-5 0-10 3-14 6-4 4-6 9-6 14 0 6 2 11 6 15 4 3 9 6 14 6s11-3 14-6c4-4 6-9 6-15 0-5-2-10-6-14-3-3-9-6-14-6z m80 81c-5 0-10 2-14 6-3 3-6 8-6 14 0 5 2 10 6 14 4 4 9 6 14 6 6 0 11-2 15-6 3-4 5-9 5-14s-2-11-5-14c-4-4-9-6-15-6z m-80-241c-5 0-10 2-14 6-4 4-6 9-6 14 0 5 2 10 6 14 4 4 9 6 14 6s11-2 14-6c4-4 6-9 6-14s-2-10-6-14c-3-4-9-6-14-6z m80 80c-5 0-10 2-14 6-3 4-6 9-6 14 0 5 2 11 6 14 4 4 9 6 14 6 6 0 11-2 15-6 3-3 5-9 5-14 0-5-2-10-5-14-4-4-9-6-15-6z m81 80c-6 0-11 3-14 6-4 4-6 9-6 14 0 6 2 11 6 15 3 3 8 6 14 6 5 0 10-3 14-6 4-4 6-9 6-15 0-5-2-10-6-14-4-3-9-6-14-6z m-161-80c-5 0-10 2-14 6-4 4-6 9-6 14 0 5 2 11 6 14 4 4 9 6 14 6s11-2 14-6c4-3 6-9 6-14 0-5-2-10-6-14-3-4-9-6-14-6z m80 80c-5 0-10 3-14 6-3 4-6 9-6 14 0 6 2 11 6 15 4 3 9 6 14 6 6 0 11-3 15-6 3-4 5-9 5-15 0-5-2-10-5-14-4-3-9-6-15-6z m81 81c-6 0-11 2-14 6-4 3-6 8-6 14 0 5 2 10 6 14 3 4 8 6 14 6 5 0 10-2 14-6 4-4 6-9 6-14s-2-11-6-14c-4-4-9-6-14-6z m-241-241c-5 0-11 2-14 6-4 4-6 9-6 14 0 5 2 10 6 14 3 4 9 6 14 6 5 0 10-2 14-6 4-4 6-9 6-14s-2-10-6-14c-4-4-9-6-14-6z m698-289l-317 397c0 4 0 8 0 12 0 133-108 241-241 241-132 0-240-108-240-241 0-79 38-150 98-194 1-1 2-1 3-2 39-28 88-44 139-44 5 0 9 0 13 0l396-317c4-3 8-5 13-5 1 0 3 1 5 1 31 8 60 25 85 50 24 24 41 54 49 85 2 6 1 13-3 17l0 0z m-758 409c0 111 90 201 200 201 65 0 122-30 159-78-17-147-134-264-282-281-47 37-77 94-77 158z m132-188c125 33 224 131 257 256 8-21 12-44 12-68 0-110-90-200-201-200-24 0-47 4-68 12v0z m494-331l-360 288c80 22 143 86 166 165l288-359c-15-43-51-80-94-94z" horiz-adv-x="1000" />
<glyph glyph-name="category-fashion" unicode="&#xe817;" d="m136 47c-14 0-27 6-37 15-10 10-16 24-16 38v43c0 20 11 38 29 47l280 144 16-31-280-143c-6-4-10-10-10-17v-43c0-5 2-9 5-13 4-4 8-5 13-5h723c5 0 9 2 13 5 3 4 5 8 5 13v0l-2 44c0 6-3 12-9 15l-326 182 0 81 12 3c38 13 66 48 65 90 0 52-42 94-94 94-52 0-94-42-94-94h0-35c0 71 58 129 129 129 71 0 129-58 129-129 0-53-32-98-78-118l0-36 309-172c16-9 26-26 27-44l1-44v-1c0-14-5-27-15-37-9-10-23-16-37-16h-723v0z" horiz-adv-x="1000" />
<glyph glyph-name="category-food" unicode="&#xe818;" d="m557 422h-37c-46 0-83 33-83 75v128c0 11 8 20 19 20 11 0 20-9 20-20v-128c0-20 20-36 44-36h37c24 0 44 16 44 36v128c0 11 9 20 20 20 11 0 19-9 19-20v-128c0-42-37-75-83-75m-19-360c11 0 20 8 20 19v544c0 11-9 20-20 20-10 0-19-9-19-20v-544c0-11 9-19 19-19m-292 0c11 0 20 8 20 19v307c0 10-9 19-20 19-11 0-20-9-20-19v-307c0-11 9-19 20-19m0 563c28 0 58-43 58-105 0-62-30-106-58-106-27 0-57 44-57 106 0 62 30 105 57 105m0-250c55 0 97 64 97 145 0 81-42 144-97 144-54 0-96-63-96-144 0-81 42-145 96-145m599-313c10 0 19 8 19 19v553c0 10-9 19-19 19-11 0-20-9-20-19v-553c0-11 9-19 20-19m0 207c10 0 19 9 19 20 0 11-9 19-19 19-40 0-72 26-72 58v201c0 32 32 58 72 58 10 0 19 8 19 19 0 11-9 20-19 20-62 0-112-44-112-97v-201c0-53 50-97 112-97" horiz-adv-x="1000" />
<glyph glyph-name="category-accessories" unicode="&#xe819;" d="m937 400h-32c-3 15-9 28-18 41-27 37-76 56-150 56h-471c-74 0-123-19-150-56-9-13-15-27-18-41h-32c-13 0-24-11-24-24 0-14 11-24 24-24h25c0-10-1-19-1-29 0-96 68-165 161-165 44 0 99 30 148 80 37 37 62 77 73 114h59c10-37 36-77 72-114 50-50 105-80 149-80 93 0 161 70 161 165 0 10-1 19-1 29h25c13 0 24 11 24 24 0 13-11 24-24 24z m-411 0h-49c-2 19-8 35-18 48h85c-10-13-16-29-18-48z m-161-128c-39-40-84-65-114-65-66 0-112 47-112 116 0 17 0 33 2 48 0 1 0 2 0 3 8 47 33 74 125 74 152 0 163-24 163-62 0-30-25-75-64-114z m387-65c-30 0-75 25-114 65-39 39-64 84-64 114 0 38 11 62 163 62 92 0 117-27 124-74 1-1 1-2 1-3 2-15 2-31 2-48 0-69-46-116-112-116z" horiz-adv-x="1000" />
<glyph glyph-name="category-department" unicode="&#xe81a;" d="m778 323c-57 0-108 30-136 76-29-46-80-76-137-76-57 0-108 30-137 76-28-46-79-76-136-76-89 0-161 73-161 161 0 3 0 6 1 8l90 251c4 9 13 15 23 15h640c10 0 19-6 22-15l91-251c1-2 1-5 1-8 0-88-72-161-161-161z m-137 168l0 0c12 0 22-9 24-21 7-57 55-100 113-100 61 0 112 49 114 111l-83 230h-608l-83-230c2-62 52-111 114-111 58 0 106 43 113 100 2 12 12 21 23 21 12 0 22-9 24-21 7-57 55-100 113-100 57 0 106 43 113 100 2 12 12 21 23 21z m192-532h-656c-13 0-23 11-23 24v358c0 13 10 23 23 23 13 0 24-10 24-23v-335h608v335c0 13 11 23 24 23 13 0 23-10 23-23v-358c0-13-10-24-23-24z m-238 124h-304c-13 0-23 10-23 23v253c0 13 10 23 23 23 13 0 24-10 24-23v-229h257v229c0 13 10 23 23 23 13 0 24-10 24-23v-253c0-13-11-23-24-23z" horiz-adv-x="1000" />
<glyph glyph-name="category-beauty" unicode="&#xe81b;" d="m575-76l0 0-78-6c-67 0-130 5-178 14-59 11-86 26-86 48 0 26 35 38 66 45 31 7 74 13 121 15v95c0 9 7 16 16 16 9 0 16-7 16-16v-110c0-9-6-16-15-17-101-4-152-19-167-28 20-11 97-29 227-29 130 0 207 18 228 29-16 9-70 24-173 29-9 0-16 7-16 16v110c0 9 8 16 17 16 9 0 16-7 16-16v-94c91-5 192-20 192-61 0-22-26-37-86-48-47-9-111-14-178-14m0 844c-169 0-306-138-306-307s137-306 306-306 307 137 307 306-138 307-307 307m0-646c-187 0-339 152-339 339 0 187 152 340 339 340 187 0 340-153 340-340 0-187-153-339-340-339m0 566c-125 0-226-102-226-227 0-125 101-226 226-226 125 0 227 101 227 226 0 125-102 227-227 227m0-486c-143 0-259 116-259 259 0 143 116 259 259 259s259-116 259-259c0-143-116-259-259-259" horiz-adv-x="1000" />
<glyph glyph-name="category-diy" unicode="&#xe81c;" d="m591-27h-200c-13 0-23 10-23 23v306c-81 45-130 128-130 221 0 104 62 196 158 235 7 3 15 2 21-2 6-4 10-12 10-19v-223h128v223c0 7 3 15 10 19 6 4 14 5 21 2 96-39 158-131 158-235 0-93-49-176-130-221v-306c-1-13-11-23-23-23z m-177 46h154v297c0 9 5 16 13 20 73 35 118 107 118 187 0 73-38 140-99 177v-209c0-12-10-22-23-22h-173c-12 0-22 10-22 22v209c-61-37-99-104-99-177 0-80 45-152 118-187 8-4 13-12 13-20v-297z" horiz-adv-x="1000" />
<glyph glyph-name="category-electronic" unicode="&#xe81d;" d="m494 273c-43 0-78 36-78 79 0 43 35 78 78 78 43 0 79-35 79-78 0-43-36-79-79-79z m0 118c-22 0-39-17-39-39 0-22 17-39 39-39 22 0 39 17 39 39 0 22-17 39-39 39z m278 238c-75 75-173 115-278 115-105 0-203-40-277-115-75-74-115-172-115-277 0-105 40-203 115-278 74-74 172-115 277-115 105 0 203 41 278 115 74 75 115 173 115 278 0 105-41 203-115 277z m32-108l-178-85c-12 20-28 36-47 48l84 178c60-32 109-82 141-141v0z m-428-169c0 65 53 118 118 118s118-53 118-118c0-65-53-118-118-118s-118 53-118 118z m118 353c47 0 92-9 133-26l-84-178c-15 5-32 8-49 8-87 0-157-70-157-157 0-17 3-34 8-49l-178-84c-17 41-26 86-26 133 0 195 158 353 353 353z m-310-522l178 85c12-20 28-36 48-48l-85-178c-59 32-109 82-141 141l0 0z m310-184c-47 0-92 9-133 26l84 178c16-5 32-8 49-8 87 0 157 70 157 157 0 17-3 33-8 49l178 84c17-41 26-86 26-133 0-195-158-353-353-353z" horiz-adv-x="1000" />
<glyph glyph-name="category-household" unicode="&#xe81e;" d="m265-36h-42c-12 0-21 9-21 21 0 12 9 21 21 21h42c12 0 21-9 21-21 0-12-9-21-21-21z m505 0h-42c-12 0-22 9-22 21 0 12 10 21 22 21h42c11 0 21-9 21-21 0-12-10-21-21-21z m62 503c-3 105-34 173-96 211-57 36-134 43-240 43-105 0-182-7-239-43-63-38-94-106-97-211-48-10-84-53-84-104 0-50 36-93 84-103v-191c0-35 28-63 63-63h547c34 0 63 28 63 63v191c48 10 84 53 84 103 0 51-37 94-85 104z m-553 176c48 30 119 36 217 36 98 0 169-6 218-36 49-31 73-87 76-177-48-9-84-52-84-102v-64h-420v63c0 51-36 94-84 103 3 90 28 146 77 177l0 0 0 0z m7-385h420v-63c0-11-9-21-21-21h-378c-12 0-21 10-21 21l0 63 0 0z m526 42c-12 0-21-9-21-21v-210c0-11-10-21-21-21h-547c-12 0-21 10-21 21v210c0 12-10 21-21 21-35 0-63 29-63 63 0 35 28 64 63 64 35 0 63-29 63-64v-168c0-34 28-63 63-63h378c35 0 64 29 64 63v168c0 35 28 64 63 64 34 0 63-29 63-64 0-34-29-63-63-63z m-84 211h-22c-46 0-84 37-84 84v21c0 11-9 21-21 21-11 0-21-10-21-21v-21c0-47-37-84-84-84-46 0-84 37-84 84v21c0 11-9 21-21 21-11 0-21-10-21-21v-21c0-47-38-84-84-84h-21c-12 0-21-10-21-21 0-12 9-21 21-21h21c46 0 84-38 84-85v-21c0-11 10-21 21-21 12 0 21 10 21 21v21c0 47 38 85 84 85 47 0 84-38 84-85v-21c0-11 10-21 21-21s21 10 21 21v21c0 47 38 85 84 85h22c11 0 21 9 21 21 0 11-10 21-21 21z m-337-57c-9 14-21 26-35 36 14 9 26 21 35 35 10-14 22-26 36-35-14-10-26-22-36-36z m210 0c-9 14-21 26-35 36 14 9 26 21 35 35 10-14 22-26 36-35-14-10-26-22-36-36z" horiz-adv-x="1000" />
<glyph glyph-name="category-hypermarket" unicode="&#xe81f;" d="m920 455v50c0 4-1 8-3 11l-100 200c-4 9-12 14-22 14h-600c-9 0-18-5-22-14l-100-200c-2-3-3-7-3-11v-50c0-41 20-77 50-100v-325h-25c-14 0-25-11-25-25s11-25 25-25h800c14 0 25 11 25 25s-11 25-25 25h-25v325c30 23 50 59 50 100z m-325-75c-41 0-75 34-75 75v25h150v-25c0-41-34-75-75-75z m-475 75v25h150v-25c0-41-34-75-75-75s-75 34-75 75z m350 225v-150h-143l38 150h105z m156 0l37-150h-143v150h106z m-306-200h150v-25c0-41-34-75-75-75s-75 34-75 75v25z m400 0h150v-25c0-41-34-75-75-75s-75 34-75 75v25z m135 50h-140l-38 150h103l75-150z m-644 150h102l-37-150h-140l75 150z m-41-347c8-2 17-3 25-3 41 0 77 20 100 50 23-30 59-50 100-50s77 20 100 50c18-24 45-41 75-47v-303h-400v303 0z m650-303h-200v303c31 6 57 23 75 47 23-30 59-50 100-50 9 0 17 1 25 2v-302 0z m-100 175c0-14-11-25-25-25s-25 11-25 25 11 25 25 25 25-11 25-25z m-475-25c-6 0-13 2-18 7-9 10-9 26 0 36l50 50c10 9 26 9 36 0 9-10 9-26 0-36l-50-50c-5-5-12-7-18-7h0z m50-100c-6 0-13 2-18 7-9 10-9 26 0 36l150 150c10 9 26 9 36 0 9-10 9-26 0-36l-150-150c-5-5-12-7-18-7h0z m150 0c-6 0-13 2-18 7-9 10-9 26 0 36l50 50c10 9 26 9 36 0 9-10 9-26 0-36l-50-50c-5-5-12-7-18-7h0z" horiz-adv-x="1000" />
<glyph glyph-name="category-jewelry" unicode="&#xe820;" d="m913 476l-132 175c-4 6-10 9-17 9h-527c-7 0-13-3-17-9l-132-175c-6-9-6-20 1-28l395-439c4-5 10-7 17-7 6 0 12 2 16 7l395 439c7 8 7 19 1 28z m-310-35l-102-341-103 341h205z m-190 43l88 118 87-118h-175z m131 132h176l-88-117-88 117z m-175-117l-88 117h176l-88-117z m-44-15h-176l88 118 88-118z m28-43l98-330-296 330h198z m296 0h197l-296-330 99 330z m27 43l88 118 88-118h-176z" horiz-adv-x="1000" />
<glyph glyph-name="category-kids" unicode="&#xe821;" d="m625 301c-30 0-53 24-53 53 0 29 23 53 53 53s52-24 52-53c0-29-23-53-52-53z m0 71c-10 0-18-8-18-18 0-10 8-17 18-17 9 0 17 7 17 17 0 10-8 18-17 18z m-247-71c-29 0-52 24-52 53 0 29 23 52 52 52s53-23 53-52c0-29-23-53-53-53z m0 70c-9 0-17-8-17-17s8-18 17-18 18 8 18 18c0 9-8 17-18 17z m123-245c-58 0-113 29-146 78-5 8-3 19 5 24 8 6 19 3 25-5 26-39 69-62 116-62 48 0 91 23 117 62 6 8 17 11 25 5 8-5 10-16 5-24-33-49-88-78-147-78z m296 287c-23 62-66 116-121 152 1 9 1 21 1 35 0 37-6 54-7 56-5 14-15 24-28 29-12 4-27 2-39-6l-61-39c-11 8-25 13-41 13-15 0-29-5-40-13l-61 39c-12 8-27 10-40 6-12-5-22-15-27-29-1-2-7-19-7-56 0-14 0-26 1-35-55-36-98-90-121-152-35-26-56-68-56-112 0-44 21-85 56-112 22-58 60-108 112-145 53-39 117-59 183-59s131 20 184 59c52 37 90 87 112 145 35 27 56 68 56 112 0 44-21 86-56 112z m-175 237c3 2 7 2 9 2 3-1 5-4 6-7 0-1 5-15 5-45 1-29-4-43-4-44-2-4-4-7-8-8-3-2-7-1-11 1l-48 25c1 3 1 6 1 9 0 10-3 20-7 30l57 37h0z m-121-32c20 0 36-16 36-35s-16-36-36-36c-19 0-35 16-35 36s16 35 35 35z m-140-18c0 30 5 44 5 45 1 3 3 6 6 7 2 0 6 0 9-2l57-38c-4-9-7-19-7-30 0-2 0-5 1-8l-48-25c-4-2-8-3-11-1-4 1-6 4-8 8 0 1-4 14-4 44h0z m412-385c-3-2-6-5-7-9-40-111-146-186-264-186-119 0-225 75-265 186-1 4-4 7-7 9-28 20-45 52-45 86 0 35 17 67 45 87 3 2 6 5 7 8 19 54 55 102 102 135 5-7 13-13 21-16 6-2 11-3 17-3 8 0 16 2 23 6l45 23c12-17 33-29 57-29 23 0 44 12 56 29l45-23c7-4 15-6 23-6 6 0 12 1 17 3 8 3 16 9 21 16 47-33 83-81 102-135 2-3 4-6 7-8 28-20 45-52 45-87 0-34-17-66-45-86l0 0z" horiz-adv-x="1000" />
<glyph glyph-name="category-mens" unicode="&#xe822;" d="m796 128c-46 35-113 55-173 69-11 3-25 19-30 41-3 12-7 42 18 64 18 15 30 34 39 54 32 40 52 82 60 125 7 37 5 75-7 115-13 45-44 82-92 108-40 21-88 33-134 31-30-1-57-8-78-20-19-11-33-26-40-44-34-5-59-24-73-55-15-35-16-83-2-137 12-48 35-92 62-123 6-20 17-39 35-54 25-21 19-55 17-64-6-23-19-39-29-41-60-14-127-34-173-69-44-35-66-83-66-148 0-11 9-20 20-20h692c11 0 20 9 20 20 0 65-22 113-66 148h0z m-473 471c10 22 26 32 51 32 10 0 18 7 20 16 6 33 48 46 85 47 74 3 164-34 185-109 12-41 12-79 1-116-2 26-7 50-13 66-5 15-15 35-34 35-105 0-189 14-209 35-6 5-15 7-23 4-7-3-12-11-12-19 0-55-18-96-31-106-5-4-8-10-7-16 0-5 0-11 0-16-21 52-28 112-12 147h-1z m-151-598c3 41 19 71 49 95 31 24 79 42 158 61 27 7 50 35 58 71 10 41-1 80-29 105-31 26-31 72-32 116 0 3 0 7 0 11 16 18 31 51 37 96 23-10 56-17 99-22 30-3 64-5 98-5 7-13 18-54 15-100-2-30-11-71-41-96-29-25-41-64-31-104 9-36 33-65 60-72 79-19 126-37 157-61 31-24 47-54 50-95l-648 0 0 0z" horiz-adv-x="1000" />
<glyph glyph-name="category-underwear" unicode="&#xe823;" d="m949 245l-141 375c-3 9-12 15-22 15h-561c-10 0-19-6-22-15l-141-375c-4-11 1-24 12-29l281-140c10-5 22-2 29 7l122 162 121-162c5-6 12-10 19-10 3 0 7 1 10 3l281 140c11 5 16 18 12 29h0z m-708 343h529l18-47h-565l18 47z m412-462l-129 172c-4 6-11 9-19 9s-14-3-18-9l-129-172-244 123 92 245h214c-3-3-5-7-7-11-17-26-24-52-24-53-3-13 5-25 17-28 13-4 25 4 29 17 0 0 20 75 70 75 51 0 71-74 71-76 3-10 13-17 23-17 2 0 4 0 6 1 12 3 20 15 17 28-1 1-7 27-24 53-2 4-5 8-7 11h214l92-245-244-123 0 0 0 0z" horiz-adv-x="1000" />
<glyph glyph-name="category-womens" unicode="&#xe824;" d="m799-43h-628c-6 0-12 2-16 7-4 5-6 11-5 17 12 68 23 112 52 146 29 33 73 55 152 74 16 3 39 30 46 59 5 21 1 37-12 49-44 37-60 93-65 133-7 49-2 94 7 116 8 22 20 27 29 27 19 0 76 0 111 36 4 4 10 6 15 6 6 0 11-3 15-6 36-36 92-36 111-36 9 0 21-5 29-27 9-22 14-67 7-116-5-40-21-96-65-133-13-12-18-29-13-49 7-29 31-55 47-59 79-19 123-41 152-74 29-34 40-78 52-146 1-6-1-12-5-17-4-5-10-7-16-7l0 0 0 0z m-603 41h578c-19 102-44 132-168 162-34 8-68 48-78 90-9 36 1 68 27 90 38 33 49 89 52 119 4 40-1 72-6 84-25 0-75 4-116 35-41-31-91-35-116-35-5-12-10-44-6-84 3-30 14-86 52-119 25-21 34-53 26-90-11-43-44-82-77-90-124-30-149-60-168-162z m436 252c-8 0-15 4-19 11-5 11-1 23 9 28 39 20 105 33 144 40-38 71-58 146-74 208-6 24-12 45-18 62-18 55-58 95-107 107-28 7-55 3-68-11-4-3-9-6-15-6h0c-5 0-10 3-14 7-13 12-39 16-66 10-50-11-90-51-108-107-6-17-12-38-18-62-17-62-37-137-74-209 41-8 114-24 144-39 10-5 14-17 9-28-5-10-18-14-28-9-29 15-127 34-162 40-6 1-12 6-15 12-3 6-3 14 1 19 45 75 67 158 84 225 7 24 13 46 19 64 23 70 75 120 138 135 34 8 67 4 91-10 24 14 57 18 92 10 29-7 56-22 79-43 26-24 46-55 58-92 6-18 12-39 19-64 17-67 39-150 84-225 4-6 4-13 1-19-3-7-9-11-16-12-1 0-112-15-161-40-3-1-6-2-9-2v0h0z" horiz-adv-x="1000" />
<glyph glyph-name="category-gifts" unicode="&#xe825;" d="m764-55h-516c-48 0-86 38-86 86v479c0 47 38 86 86 86h516c47 0 86-39 86-86v-479c0-48-39-86-86-86z m-516 604c-22 0-39-18-39-39v-479c0-21 17-39 39-39h516c22 0 39 18 39 39v479c0 21-17 39-39 39l-516 0 0 0z m554-196h-592c-13 0-23 11-23 24 0 12 10 23 23 23h592c13 0 23-11 23-23 0-13-10-24-23-24z m-181 200c-10 0-19 7-22 17-4 12 3 25 16 29 38 11 70 35 81 60 4 12 4 22-1 32-10 19-28 34-49 39-17 4-33 2-47-7-29-20-51-74-66-111-3-9-7-17-10-24-5-12-19-17-31-12-12 5-17 19-12 31 3 6 6 14 10 23 18 44 42 105 83 132 25 16 55 21 85 13 33-8 63-31 79-62 11-22 12-48 2-72-17-39-59-72-111-87-2-1-4-1-7-1z m-255 0c-3 0-5 0-7 1-52 15-94 48-111 87-10 24-9 50 2 72 16 30 46 54 79 62 30 8 60 3 85-13 41-27 65-88 83-132 4-9 7-17 10-23 5-12 0-26-12-31-12-6-26 0-31 12-3 7-7 15-10 24-15 37-37 91-66 111-14 9-30 11-47 7-21-5-39-20-49-39-5-10-5-21 0-32 10-26 42-49 80-60 13-4 20-17 16-29-3-10-12-17-22-17z" horiz-adv-x="1000" />
<glyph glyph-name="category-health" unicode="&#xe826;" d="m919 729c-4 4-10 7-16 7h-20c-201 0-360 0-477-28-63-15-111-38-149-69-40-35-67-79-83-137-11-39-16-108 5-177 8-26 20-50 37-72-49-76-91-176-91-296 0-11 9-20 20-20s20 9 20 20c0 184 109 321 174 385 46 47 99 86 152 114 50 26 97 40 133 40 11 0 20 9 20 20 0 11-9 20-20 20-43 0-96-15-151-44-57-30-113-72-162-121-21-21-46-49-71-83-10 15-17 31-23 48-19 65-12 128-5 155 57 204 274 205 668 205-47-251-135-414-260-483-117-65-233-29-277-11-9 3-19 8-28 14-9 5-22 2-27-7s-3-22 7-28c10-6 22-12 33-16 25-10 65-23 114-28 11-1 22-1 33-1 58 0 113 14 164 42 64 35 120 93 165 172 53 92 93 214 119 362 1 6 0 12-4 17l0 0z" horiz-adv-x="1000" />
<glyph glyph-name="category-parfum" unicode="&#xe827;" d="m862 464c0 33-26 59-59 59-33 0-59-26-59-59 0-22 12-41 29-51-11-44-40-164-56-280-24 8-56 14-91 18 2 105 26 315 33 374 26 6 45 30 45 57 0 33-26 60-59 60-32 0-59-27-59-60 0-23 14-44 34-53-7-60-31-265-34-374-26 2-53 3-79 3v487c23 8 40 30 40 56 0 32-27 59-60 59-32 0-59-27-59-59 0-26 17-48 40-56v-487c-26 0-53-1-79-3-3 109-27 314-34 374 20 9 34 30 34 53 0 33-27 60-59 60-33 0-60-27-60-60 0-27 20-51 46-57 7-59 31-269 33-374-35-4-67-10-91-18-16 116-45 236-56 280 17 10 29 29 29 51 0 33-27 59-59 59-33 0-59-26-59-59 0-30 22-54 50-58 15-59 68-282 68-415 0-7 4-14 9-17 6-4 13-4 20-1 32 16 124 27 227 27 104 0 195-11 228-27 3-2 6-2 9-2 4 0 7 1 11 3 5 3 9 10 9 16 0 134 53 357 68 416 28 4 50 29 50 58l0 0z m-217 138c11 0 20-9 20-20 0-10-9-19-20-19s-19 9-19 19c0 11 8 20 19 20z m-315 0c10 0 19-9 19-20 0-10-9-19-19-19-11 0-20 9-20 19 0 11 9 20 20 20z m157 119c11 0 20-9 20-20 0-11-9-20-20-20-10 0-19 9-19 20 0 11 9 20 19 20z m-335-257c0 11 9 20 20 20 11 0 19-9 19-20 0-11-8-20-19-20-11 0-20 9-20 20z m335-424c-73 0-163-6-217-21-1 23-4 48-7 74 36 16 125 26 224 26 100 0 189-10 224-26-3-26-5-51-6-74-55 15-144 21-218 21z m316 404c-11 0-20 9-20 20 0 11 9 20 20 20s20-9 20-20c0-11-9-20-20-20z" horiz-adv-x="1000" />
<glyph glyph-name="category-service" unicode="&#xe828;" d="m231 102c85-18 176-27 271-27 95 0 186 9 271 27 2 13 3 25 3 38 0 102-72 194-179 230-6 2-10 7-11 13-1 6 1 12 6 16 31 27 49 65 49 106 0 76-63 139-139 139-76 0-139-63-139-139 0-41 18-79 49-106 5-4 7-10 6-16-1-6-6-11-11-13-107-36-179-128-179-230 0-13 1-25 3-38m271-61c-102 0-199 10-289 30-7 2-12 7-13 13-5 18-7 37-7 56 0 108 70 207 177 253-26 31-41 71-41 112 0 95 78 173 173 173 95 0 173-78 173-173 0-41-15-81-41-112 107-46 177-145 177-253 0-19-2-38-7-56-1-6-6-11-13-13-90-20-187-30-289-30m62 400h-59c-10 0-17 8-17 17s7 17 17 17h59c28 0 56 26 71 68 3 9 13 13 22 10 9-3 14-13 10-22-20-56-60-90-103-90m-264 9c-9 0-17 8-17 18v103c0 10 8 17 17 17 10 0 17-7 17-17v-103c0-10-7-18-17-18m404 0c-9 0-17 8-17 18v103c0 10 8 17 17 17s17-7 17-17v-103c0-10-7-18-17-18" horiz-adv-x="1000" />
<glyph glyph-name="category-shoes" unicode="&#xe829;" d="m831 600c-7 8-15 15-21 20-3 23-16 46-39 69-68 69-117 71-122 71 0 0 0 0 0 0-8 0-14-4-18-10-60-91-148-225-198-295 2 13 2 23 0 31-15 50-80 58-83 59-9 1-18-4-22-13-9-19-17-71-31-160-2-16-4-32-7-48-21-138-24-140-90-208-8-9-17-18-28-29-17-19-30-41-36-65-6-24-4-44 6-57 16-20 34-22 37-23 1 0 1 0 2 0 2 0 4 1 7 2 4 1 107 37 234 163 119 120 145 170 162 203 6 12 10 20 16 27 11 13 36 39 64 70 2 2 3 4 5 6l27-34c4-4 10-7 16-8 1 0 1 0 1 0 6 0 11 3 15 7 1 0 33 33 66 68 64 71 70 87 70 99 0 15-10 32-33 55l0 0z m-263-235c-10-11-16-22-22-35-16-31-40-78-154-192-102-101-188-141-211-151-2 1-3 2-5 4-2 7 1 39 27 66 10 11 20 20 28 29 34 35 55 56 69 88 14 30 21 67 33 143 2 17 5 33 7 49 8 51 16 104 22 132 12-4 26-12 29-23 1-6-2-28-4-39-5-30-8-47 2-59 5-5 12-8 19-8 10 0 17 6 20 8 5 5 17 15 130 185 43 64 84 127 101 153 14-5 44-18 82-56 38-38 31-64 9-91-19-24-74-84-118-132-28-31-53-57-64-71h0z m190 106c-16-18-32-34-43-46l-16 20c36 39 70 77 85 96 8 9 13 19 18 28 9-9 16-18 18-23-4-6-17-25-62-75v0z" horiz-adv-x="1000" />
<glyph glyph-name="category-sport" unicode="&#xe82a;" d="m42 273c-14 0-24 11-24 24v97c0 13 10 24 24 24 13 0 24-11 24-24v-97c0-13-11-24-24-24z m916 0c-13 0-24 11-24 24v97c0 13 11 24 24 24 14 0 25-11 25-24v-97c0-13-11-24-25-24z m-96 241c-9 0-17-1-24-4v28c0 40-33 73-73 73-39 0-72-33-72-73v-168h-386v168c0 40-32 73-72 73-40 0-73-33-73-73v-28c-7 3-15 4-24 4-40 0-72-32-72-72v-193c0-40 32-72 72-72 9 0 17 1 24 4v-29c0-39 33-72 73-72 40 0 72 33 72 72v169h386v-169c0-39 33-72 72-72 40 0 73 33 73 72v29c7-3 15-4 24-4 40 0 72 32 72 72v193c0 40-32 72-72 72z m-724-289c-13 0-24 11-24 24v193c0 13 11 24 24 24s24-11 24-24v-193c0-13-11-24-24-24z m121-73c0-13-11-24-24-24-14 0-24 11-24 24v386c0 14 10 25 24 25 13 0 24-11 24-25v-386z m531 0c0-13-11-24-25-24-13 0-24 11-24 24v386c0 14 11 25 24 25 14 0 25-11 25-25v-386z m96 97c0-13-11-24-24-24s-24 11-24 24v193c0 13 11 24 24 24s24-11 24-24v-193z" horiz-adv-x="1000" />
<glyph glyph-name="category-sportfashion" unicode="&#xe82b;" d="m393 151l522-3c5 16 12 47-1 72-10 19-31 32-63 38-132 23-419 259-431 269 0 1-1 1-1 2-1 0-12 11-39 11-30 0-68-15-109-44-25-18-48-26-70-26-41 0-67 29-86 50-4 6-11 13-15 17-1-1-2-3-4-5-3-33-2-312 0-381h169l47 64c4 4 9 7 14 7 6 0 11-2 14-6l53-65z m534-38h0l-543 3c-5 0-10 2-13 6l-44 54-39-53c-3-5-8-7-14-7h-194c-6 0-12 3-15 8-3 5-5 8-6 209-1 203 3 208 5 213 4 7 15 27 35 27 17 0 29-14 43-30 16-18 34-38 59-38 14 0 31 7 49 20 48 33 92 51 130 51 38 0 58-17 63-22 15-12 294-240 414-262 43-8 73-26 88-56 27-50 0-110-2-113-2-6-9-10-16-10m3 76h-852c-10 0-18 8-18 18s8 17 18 17h852c9 0 17-8 17-17s-8-18-17-18" horiz-adv-x="1000" />
<glyph glyph-name="circle-full" unicode="&#xe82c;" d="m1000 350c0-276-224-500-500-500s-499 224-499 500 223 500 499 500 500-224 500-500z" horiz-adv-x="1000" />
</font>
</defs>
</svg>
